<?xml version="1.0" encoding="utf-8"?>
<!-- Generator: Adobe Illustrator 23.0.2, SVG Export Plug-In . SVG Version: 6.00 Build 0)  -->
<svg version="1.1" xmlns="http://www.w3.org/2000/svg" x="0px" y="0px"
     viewBox="0 0 165 40" style="enable-background:new 0 0 165 40;" xml:space="preserve">
<style type="text/css">
	.st0{fill:#BFBFBF;}
	.st1{fill:#808080;}
</style>
  <g id="Layer_1">
</g>
  <g id="Default">
	<g>
		<path class="st0" d="M33.16,7.02v25.87H7.29V7.02H33.16 M33.66,6.52H6.79v26.87h26.87V6.52L33.66,6.52z"/>
	</g>
    <path class="st0" d="M35,34.73H5.45V5.18H35V34.73z M13.99,6.52c-1.33,0-2.65,0-3.98,0c-0.66,0-1.33,0-1.99,0
		c-0.33,0-0.66,0-0.99,0c-0.04,0-0.08,0-0.12,0c-0.02,0-0.04,0-0.06,0c-0.01,0-0.02,0-0.03,0c-0.01,0-0.01,0-0.02,0c0,0,0,0,0,0
		c0,0,0,0,0,0c0,0,0,0.01,0,0.01c0,0.08,0,0.17,0,0.25c0,0.17,0,0.33,0,0.5c0,1.33,0,2.65,0,3.98c0,0.29,0,0.59,0,0.88
		c0,0.07,0,0.15,0,0.22c0,0.01,0,0.01,0.01,0.01c0,0,0.01,0,0.01,0c0.01,0,0.02,0,0.03,0c0.02,0,0.03,0,0.05,0
		c0.07,0.01,0.14,0.01,0.21,0.02c0.28,0.02,0.56,0.05,0.83,0.09c0.57,0.07,1.14,0.17,1.7,0.29c1.31,0.28,2.56,0.68,3.79,1.2
		c0.61,0.26,1.2,0.54,1.78,0.86c0.15,0.08,0.29,0.16,0.44,0.24c0.07,0.04,0.15,0.08,0.22,0.13c0.04,0.02,0.07,0.04,0.11,0.06
		c0,0,0.01,0.01,0.01,0.01c0,0,0,0,0.01,0c0,0,0,0,0,0c0,0,0,0,0,0c0-0.01-0.01-0.02-0.01-0.03c-0.01-0.02-0.02-0.04-0.03-0.06
		c-0.14-0.3-0.27-0.61-0.4-0.91C14.53,11.82,13.99,9.19,13.99,6.52z M33.66,23.51c0-5.25,0-10.51,0-15.76c0-0.33,0-0.66,0-0.99
		c0-0.04,0-0.08,0-0.12c0-0.02,0-0.04,0-0.06c0-0.01,0-0.02,0-0.03c0-0.01,0-0.01,0-0.02c0-0.01-0.01,0-0.01,0
		c-0.08,0-0.16,0-0.25,0c-0.16,0-0.33,0-0.49,0c-0.66,0-1.31,0-1.97,0c-1.31,0-2.63,0-3.94,0c-2.63,0-5.25,0-7.88,0
		c-1.13,0-2.25,0-3.38,0c-0.07,0-0.14,0-0.21,0c-0.04,0-0.07,0-0.11,0c-0.02,0-0.04,0-0.05,0c-0.01,0-0.02,0-0.03,0
		c-0.01,0-0.01,0-0.01,0.01c0,0.06,0,0.11,0,0.17c0,0.11,0,0.23,0.01,0.34c0.01,0.23,0.02,0.46,0.04,0.69
		c0.07,0.96,0.23,1.9,0.48,2.84c0.68,2.56,1.98,4.89,3.75,6.85C23.18,21.39,28.39,23.51,33.66,23.51z M6.79,16.41
		c0,5.25,0,10.51,0,15.76c0,0.33,0,0.66,0,0.98c0,0.04,0,0.08,0,0.12c0,0.02,0,0.04,0,0.06c0,0.01,0,0.02,0,0.03
		c0,0.01,0,0.01,0,0.02c0,0.01,0.01,0,0.01,0c0.08,0,0.16,0,0.25,0c0.16,0,0.33,0,0.49,0c0.66,0,1.31,0,1.97,0c1.31,0,2.63,0,3.94,0
		c2.63,0,5.25,0,7.88,0c1.13,0,2.25,0,3.38,0c0.07,0,0.14,0,0.21,0c0.04,0,0.07,0,0.11,0c0.02,0,0.04,0,0.05,0c0.01,0,0.02,0,0.03,0
		c0.01,0,0.01,0,0.01-0.01c0-0.06,0-0.11,0-0.17c0-0.11,0-0.23-0.01-0.34c-0.01-0.23-0.02-0.46-0.04-0.69
		c-0.07-0.96-0.23-1.9-0.48-2.84c-0.68-2.56-1.98-4.89-3.75-6.85C17.27,18.53,12.07,16.41,6.79,16.41z M26.46,33.39
		c1.33,0,2.65,0,3.98,0c0.66,0,1.33,0,1.99,0c0.33,0,0.66,0,0.99,0c0.04,0,0.08,0,0.12,0c0.02,0,0.04,0,0.06,0c0.01,0,0.02,0,0.03,0
		c0.01,0,0.01,0,0.02,0c0,0,0,0,0,0c0,0,0,0,0,0c0,0,0-0.01,0-0.01c0-0.08,0-0.17,0-0.25c0-0.17,0-0.33,0-0.5c0-1.33,0-2.65,0-3.98
		c0-0.29,0-0.59,0-0.88c0-0.07,0-0.15,0-0.22c0-0.01,0-0.01-0.01-0.01c0,0-0.01,0-0.01,0c-0.01,0-0.02,0-0.03,0
		c-0.02,0-0.03,0-0.05,0c-0.07,0-0.14-0.01-0.21-0.02c-0.28-0.02-0.56-0.05-0.83-0.09c-0.57-0.07-1.14-0.17-1.7-0.29
		c-1.31-0.28-2.56-0.68-3.79-1.2c-0.61-0.26-1.2-0.55-1.78-0.86c-0.15-0.08-0.29-0.16-0.44-0.24c-0.07-0.04-0.15-0.08-0.22-0.13
		c-0.04-0.02-0.07-0.04-0.11-0.06c0,0-0.01-0.01-0.01-0.01c0,0,0,0-0.01,0c0,0,0,0,0,0c0,0,0,0,0,0c0,0.01,0.01,0.02,0.01,0.03
		c0.01,0.02,0.02,0.04,0.03,0.06c0.14,0.3,0.27,0.6,0.4,0.91C25.92,28.09,26.46,30.73,26.46,33.39z"/>
    <path class="st1" d="M5.45,34.73V5.18H35v29.55H5.45z M33.66,13.72c0-1.33,0-2.65,0-3.98c0-0.66,0-1.33,0-1.99
		c0-0.33,0-0.66,0-0.99c0-0.04,0-0.08,0-0.12c0-0.02,0-0.04,0-0.06c0-0.01,0-0.02,0-0.03c0-0.01,0-0.01,0-0.02c0,0,0,0,0,0
		c0,0,0,0,0,0c0,0-0.01,0-0.01,0c-0.08,0-0.17,0-0.25,0c-0.17,0-0.33,0-0.5,0c-1.33,0-2.65,0-3.98,0c-0.29,0-0.59,0-0.88,0
		c-0.07,0-0.15,0-0.22,0c-0.01,0-0.01,0-0.01,0.01c0,0,0,0.01,0,0.01c0,0.01,0,0.02,0,0.03c0,0.02,0,0.03,0,0.05
		c-0.01,0.07-0.01,0.14-0.02,0.21c-0.02,0.28-0.05,0.56-0.09,0.83c-0.07,0.57-0.17,1.14-0.29,1.7c-0.28,1.31-0.68,2.56-1.2,3.79
		c-0.26,0.61-0.54,1.2-0.86,1.78c-0.08,0.15-0.16,0.29-0.24,0.44c-0.04,0.07-0.08,0.15-0.13,0.22c-0.02,0.04-0.04,0.07-0.06,0.11
		c0,0-0.01,0.01-0.01,0.01c0,0,0,0,0,0.01c0,0,0,0,0,0s0,0,0,0c0.01,0,0.02-0.01,0.03-0.01c0.02-0.01,0.04-0.02,0.06-0.03
		c0.3-0.14,0.61-0.27,0.91-0.4C28.36,14.26,31,13.72,33.66,13.72z M16.68,33.39c5.25,0,10.51,0,15.76,0c0.33,0,0.66,0,0.99,0
		c0.04,0,0.08,0,0.12,0c0.02,0,0.04,0,0.06,0c0.01,0,0.02,0,0.03,0c0.01,0,0.01,0,0.02,0c0.01,0,0-0.01,0-0.01c0-0.08,0-0.16,0-0.25
		c0-0.16,0-0.33,0-0.49c0-0.66,0-1.31,0-1.97c0-1.31,0-2.63,0-3.94c0-2.63,0-5.25,0-7.88c0-1.13,0-2.25,0-3.38c0-0.07,0-0.14,0-0.21
		c0-0.04,0-0.07,0-0.11c0-0.02,0-0.04,0-0.05c0-0.01,0-0.02,0-0.03c0-0.01,0-0.01-0.01-0.01c-0.06,0-0.11,0-0.17,0
		c-0.11,0-0.23,0-0.34,0.01c-0.23,0.01-0.46,0.02-0.69,0.04c-0.96,0.07-1.9,0.23-2.84,0.48c-2.56,0.68-4.89,1.98-6.85,3.75
		C18.8,22.92,16.68,28.12,16.68,33.39z M23.77,6.52c-5.25,0-10.51,0-15.76,0c-0.33,0-0.66,0-0.98,0c-0.04,0-0.08,0-0.12,0
		c-0.02,0-0.04,0-0.06,0c-0.01,0-0.02,0-0.03,0c-0.01,0-0.01,0-0.02,0c-0.01,0,0,0.01,0,0.01c0,0.08,0,0.16,0,0.25
		c0,0.16,0,0.33,0,0.49c0,0.66,0,1.31,0,1.97c0,1.31,0,2.63,0,3.94c0,2.63,0,5.25,0,7.88c0,1.13,0,2.25,0,3.38c0,0.07,0,0.14,0,0.21
		c0,0.04,0,0.07,0,0.11c0,0.02,0,0.04,0,0.05c0,0.01,0,0.02,0,0.03c0,0.01,0,0.01,0.01,0.01c0.06,0,0.11,0,0.17,0
		c0.11,0,0.23,0,0.34-0.01C7.54,24.83,7.77,24.82,8,24.8c0.96-0.07,1.9-0.23,2.84-0.48c2.56-0.68,4.89-1.98,6.85-3.75
		C21.65,17,23.77,11.8,23.77,6.52z M6.79,26.19c0,1.33,0,2.65,0,3.98c0,0.66,0,1.33,0,1.99c0,0.33,0,0.66,0,0.99
		c0,0.04,0,0.08,0,0.12c0,0.02,0,0.04,0,0.06c0,0.01,0,0.02,0,0.03c0,0.01,0,0.01,0,0.02c0,0,0,0,0,0c0,0,0,0,0,0c0,0,0.01,0,0.01,0
		c0.08,0,0.17,0,0.25,0c0.17,0,0.33,0,0.5,0c1.33,0,2.65,0,3.98,0c0.29,0,0.59,0,0.88,0c0.07,0,0.15,0,0.22,0
		c0.01,0,0.01,0,0.01-0.01c0,0,0-0.01,0-0.01c0-0.01,0-0.02,0-0.03c0-0.02,0-0.03,0-0.05c0-0.07,0.01-0.14,0.02-0.21
		c0.02-0.28,0.05-0.56,0.09-0.83c0.07-0.57,0.17-1.14,0.29-1.7c0.28-1.31,0.68-2.56,1.2-3.79c0.26-0.61,0.55-1.2,0.86-1.78
		c0.08-0.15,0.16-0.29,0.24-0.44c0.04-0.07,0.08-0.15,0.13-0.22c0.02-0.04,0.04-0.07,0.06-0.11c0,0,0.01-0.01,0.01-0.01
		c0,0,0,0,0-0.01c0,0,0,0,0,0c0,0,0,0,0,0c-0.01,0-0.02,0.01-0.03,0.01c-0.02,0.01-0.04,0.02-0.06,0.03c-0.3,0.14-0.6,0.27-0.91,0.4
		C12.09,25.65,9.45,26.19,6.79,26.19z"/>
    <g>
		<path class="st1" d="M62.84,19.75c0,2.75-0.76,4.86-2.29,6.31s-3.73,2.18-6.61,2.18h-4.67V11.57h5.16c2.65,0,4.72,0.71,6.19,2.14
			C62.1,15.14,62.84,17.16,62.84,19.75z M59.97,19.84c0-3.99-1.87-5.99-5.6-5.99H52v12.1h1.94C57.96,25.96,59.97,23.92,59.97,19.84z
			"/>
      <path class="st1" d="M66.42,28.25V11.57h2.73v16.68H66.42z"/>
      <path class="st1" d="M83.17,23.72c0,1.48-0.54,2.65-1.61,3.49c-1.07,0.84-2.55,1.27-4.44,1.27c-1.89,0-3.43-0.29-4.63-0.88v-2.58
			c0.76,0.36,1.57,0.64,2.42,0.84c0.86,0.21,1.65,0.31,2.39,0.31c1.08,0,1.88-0.21,2.39-0.62c0.51-0.41,0.77-0.96,0.77-1.65
			c0-0.62-0.24-1.15-0.71-1.59s-1.45-0.95-2.92-1.54c-1.52-0.62-2.59-1.32-3.22-2.11c-0.62-0.79-0.94-1.74-0.94-2.85
			c0-1.39,0.49-2.49,1.48-3.29c0.99-0.8,2.32-1.2,3.98-1.2c1.6,0,3.19,0.35,4.77,1.05l-0.87,2.23c-1.48-0.62-2.81-0.94-3.97-0.94
			c-0.88,0-1.55,0.19-2.01,0.58c-0.46,0.38-0.68,0.89-0.68,1.52c0,0.43,0.09,0.8,0.27,1.11s0.48,0.6,0.9,0.87
			c0.42,0.27,1.17,0.64,2.26,1.08c1.22,0.51,2.12,0.98,2.69,1.43c0.57,0.44,0.99,0.94,1.25,1.49
			C83.04,22.31,83.17,22.97,83.17,23.72z"/>
      <path class="st1" d="M93.5,13.67c-1.57,0-2.8,0.56-3.7,1.67s-1.35,2.64-1.35,4.6c0,2.05,0.43,3.59,1.29,4.64
			c0.86,1.05,2.11,1.57,3.75,1.57c0.71,0,1.39-0.07,2.05-0.21s1.35-0.32,2.06-0.54v2.34c-1.31,0.49-2.79,0.74-4.45,0.74
			c-2.44,0-4.32-0.74-5.62-2.22s-1.96-3.6-1.96-6.35c0-1.73,0.32-3.25,0.95-4.55c0.64-1.3,1.55-2.3,2.76-2.99
			c1.2-0.69,2.61-1.04,4.23-1.04c1.7,0,3.28,0.36,4.72,1.07l-0.98,2.27c-0.56-0.27-1.16-0.5-1.79-0.7S94.19,13.67,93.5,13.67z"/>
      <path class="st1" d="M116.02,19.89c0,2.71-0.68,4.83-2.04,6.33c-1.36,1.51-3.28,2.26-5.77,2.26c-2.52,0-4.45-0.75-5.8-2.24
			s-2.02-3.62-2.02-6.37s0.68-4.87,2.04-6.34c1.36-1.48,3.29-2.21,5.81-2.21c2.48,0,4.4,0.75,5.75,2.25
			C115.34,15.05,116.02,17.16,116.02,19.89z M103.28,19.89c0,2.05,0.41,3.61,1.24,4.67c0.83,1.06,2.06,1.59,3.68,1.59
			c1.62,0,2.84-0.52,3.67-1.57c0.83-1.05,1.24-2.61,1.24-4.69c0-2.05-0.41-3.6-1.23-4.65c-0.82-1.06-2.04-1.59-3.66-1.59
			c-1.64,0-2.87,0.53-3.7,1.59C103.7,16.29,103.28,17.84,103.28,19.89z"/>
      <path class="st1" d="M129.1,11.57h2.83l-5.84,16.68h-2.88l-5.82-16.68h2.81l3.48,10.37c0.18,0.49,0.38,1.13,0.58,1.91
			c0.21,0.78,0.34,1.36,0.4,1.74c0.1-0.58,0.25-1.25,0.46-2.01s0.37-1.32,0.5-1.69L129.1,11.57z"/>
      <path class="st1" d="M143.57,28.25h-9.44V11.57h9.44v2.3h-6.71v4.54h6.29v2.28h-6.29v5.24h6.71V28.25z"/>
      <path class="st1" d="M149.9,21.59v6.66h-2.73V11.57h4.71c2.15,0,3.75,0.4,4.78,1.21c1.03,0.81,1.55,2.02,1.55,3.65
			c0,2.08-1.08,3.56-3.24,4.44l4.71,7.38h-3.1l-3.99-6.66H149.9z M149.9,19.33h1.89c1.27,0,2.19-0.24,2.76-0.71
			c0.57-0.47,0.86-1.17,0.86-2.1c0-0.94-0.31-1.62-0.92-2.03c-0.62-0.41-1.54-0.62-2.78-0.62h-1.8V19.33z"/>
	</g>
</g>
</svg>
