<?xml version="1.0" encoding="utf-8"?>
<!-- Generator: Adobe Illustrator 23.0.2, SVG Export Plug-In . SVG Version: 6.00 Build 0)  -->
<svg version="1.1" xmlns="http://www.w3.org/2000/svg" xmlns:xlink="http://www.w3.org/1999/xlink" x="0px" y="0px"
	 viewBox="0 0 165 40" style="enable-background:new 0 0 165 40;" xml:space="preserve">
<style type="text/css">
	.st0{fill:#808080;}
	.st1{fill:#7AC943;}
	.st2{fill:#009444;}
	.st3{fill:#FF0000;}
	.st4{fill:#FFFF00;}
</style>
<g id="Layer_1">
	<g>
		<path class="st0" d="M62.8,19.8c0,2.8-0.8,4.9-2.3,6.3s-3.7,2.2-6.6,2.2h-4.7V11.6h5.2c2.7,0,4.7,0.7,6.2,2.1
			C62.1,15.1,62.8,17.2,62.8,19.8z M60,19.8c0-4-1.9-6-5.6-6H52V26h1.9C58,26,60,23.9,60,19.8z"/>
		<path class="st0" d="M66.4,28.3V11.6h2.7v16.7H66.4z"/>
		<path class="st0" d="M83.2,23.7c0,1.5-0.5,2.6-1.6,3.5s-2.6,1.3-4.4,1.3s-3.4-0.3-4.6-0.9V25c0.8,0.4,1.6,0.6,2.4,0.8
			c0.9,0.2,1.7,0.3,2.4,0.3c1.1,0,1.9-0.2,2.4-0.6c0.5-0.4,0.8-1,0.8-1.6c0-0.6-0.2-1.1-0.7-1.6s-1.4-1-2.9-1.5
			c-1.5-0.6-2.6-1.3-3.2-2.1c-0.6-0.8-0.9-1.7-0.9-2.9c0-1.4,0.5-2.5,1.5-3.3c1-0.8,2.3-1.2,4-1.2c1.6,0,3.2,0.4,4.8,1.1L82,14.6
			c-1.5-0.6-2.8-0.9-4-0.9c-0.9,0-1.6,0.2-2,0.6c-0.5,0.4-0.7,0.9-0.7,1.5c0,0.4,0.1,0.8,0.3,1.1s0.5,0.6,0.9,0.9s1.2,0.6,2.3,1.1
			c1.2,0.5,2.1,1,2.7,1.4c0.6,0.4,1,0.9,1.3,1.5C83,22.3,83.2,23,83.2,23.7z"/>
		<path class="st0" d="M93.5,13.7c-1.6,0-2.8,0.6-3.7,1.7s-1.3,2.6-1.3,4.6c0,2,0.4,3.6,1.3,4.6s2.1,1.6,3.8,1.6
			c0.7,0,1.4-0.1,2.1-0.2s1.3-0.3,2.1-0.5v2.3c-1.3,0.5-2.8,0.7-4.4,0.7c-2.4,0-4.3-0.7-5.6-2.2s-2-3.6-2-6.4c0-1.7,0.3-3.3,0.9-4.6
			c0.6-1.3,1.6-2.3,2.8-3c1.2-0.7,2.6-1,4.2-1c1.7,0,3.3,0.4,4.7,1.1l-1,2.3c-0.6-0.3-1.2-0.5-1.8-0.7S94.2,13.7,93.5,13.7z"/>
		<path class="st0" d="M116,19.9c0,2.7-0.7,4.8-2,6.3c-1.4,1.5-3.3,2.3-5.8,2.3c-2.5,0-4.4-0.8-5.8-2.2s-2-3.6-2-6.4s0.7-4.9,2-6.3
			c1.4-1.5,3.3-2.2,5.8-2.2c2.5,0,4.4,0.8,5.8,2.3C115.3,15.1,116,17.2,116,19.9z M103.3,19.9c0,2,0.4,3.6,1.2,4.7
			c0.8,1.1,2.1,1.6,3.7,1.6s2.8-0.5,3.7-1.6s1.2-2.6,1.2-4.7c0-2-0.4-3.6-1.2-4.6c-0.8-1.1-2-1.6-3.7-1.6c-1.6,0-2.9,0.5-3.7,1.6
			C103.7,16.3,103.3,17.8,103.3,19.9z"/>
		<path class="st0" d="M129.1,11.6h2.8l-5.8,16.7h-2.9l-5.8-16.7h2.8l3.5,10.4c0.2,0.5,0.4,1.1,0.6,1.9c0.2,0.8,0.3,1.4,0.4,1.7
			c0.1-0.6,0.3-1.3,0.5-2s0.4-1.3,0.5-1.7L129.1,11.6z"/>
		<path class="st0" d="M143.6,28.3h-9.4V11.6h9.4v2.3h-6.7v4.5h6.3v2.3h-6.3v5.2h6.7V28.3z"/>
		<path class="st0" d="M149.9,21.6v6.7h-2.7V11.6h4.7c2.1,0,3.8,0.4,4.8,1.2s1.6,2,1.6,3.7c0,2.1-1.1,3.6-3.2,4.4l4.7,7.4h-3.1
			l-4-6.7H149.9z M149.9,19.3h1.9c1.3,0,2.2-0.2,2.8-0.7c0.6-0.5,0.9-1.2,0.9-2.1c0-0.9-0.3-1.6-0.9-2c-0.6-0.4-1.5-0.6-2.8-0.6
			h-1.8L149.9,19.3L149.9,19.3z"/>
	</g>
</g>
<g id="Layer_2_copy">
	<path class="st1" d="M37.7,21c-0.2-0.1-0.4-0.2-0.6-0.1l-0.7,0.4l0.4-1.4c0-0.1,0.1-0.3,0.1-0.4c0.2-0.7,0.1-1.5-0.2-2.1
		c0,0,0-0.1,0-0.1c-0.2-0.4-0.4-0.9-0.7-1.2c0-1,0.6-1.8,1-2.2c0.3-0.3,0.5-0.6,0.3-1c-0.1-0.2-0.4-0.3-0.6-0.3
		c-0.5,0.1-1,0.2-1.5,0.5c-0.2-0.9-0.6-1.7-1.1-2.5l-0.1-0.8l1.2-1.2c0.2-0.2,0.2-0.5,0-0.7c-0.1-0.1-0.2-0.1-0.3-0.1l-1.7-0.3
		L32.4,6c-0.1-0.2-0.4-0.4-0.7-0.2c-0.1,0-0.2,0.1-0.3,0.2l-0.8,1.6l-0.5,0.1l-1.4-2c-0.2-0.2-0.5-0.3-0.7-0.1
		c-0.1,0.1-0.2,0.3-0.2,0.4v0.5l-0.6-0.8l-0.3-0.4l-0.6-0.8c-0.1-0.1-0.3-0.2-0.4-0.2c-0.2,0-0.3,0.1-0.4,0.2c-0.3,0-0.6-0.1-0.9,0
		l-5.7-0.9c-0.3,0-0.5,0.1-0.6,0.4c0,0.2,0,0.3,0.1,0.4l0.2,0.2h-1.9c-0.2,0-0.4,0.2-0.5,0.4c0,0.3,0,0.7,0.2,0.9
		c-0.7-0.3-1.4-0.6-2-1c-0.2-0.1-0.5-0.1-0.7,0c-0.1,0.1-0.2,0.3-0.3,0.5l-0.1-0.2c-0.1-0.2-0.3-0.3-0.4-0.3c-0.2,0-0.4,0.1-0.4,0.3
		l-0.8,1.6L10.1,7C9.9,7,9.7,7.3,9.7,7.6c0,0.1,0.1,0.2,0.1,0.3l0.5,0.5c-0.2,0.1-0.3,0.1-0.3,0.2C9.8,8.7,9.7,9,9.8,9.2
		c0,0,0,0,0,0.1C9.8,9.4,9.7,9.6,9.6,9.6l-2.4,1.2C7,10.9,6.9,11,6.9,11.2c0,0.2,0.1,0.4,0.2,0.5l0.1,0.1L6.7,12
		c-0.2,0.1-0.3,0.2-0.3,0.4c0,0.5,0,0.9,0.2,1.4c0,0,0,0,0,0c-0.2-0.1-0.3-0.1-0.5,0c-0.1,0.1-0.2,0.3-0.2,0.4l0,2.3
		c-0.1-0.1-0.3-0.1-0.5,0C5.2,16.7,5,16.9,5,17.1l0.5,4.5l-0.8,0.1c-0.2,0-0.3,0.2-0.4,0.3c-0.1,0.2,0,0.4,0.1,0.5l1.2,1.1
		c0,0.1,0,0.2,0,0.4l-0.2,1.4c0,0.2,0,0.4,0.2,0.5C5.7,26,5.8,26,5.9,26l-0.1,0.8c0,0.3,0.2,0.5,0.4,0.6c0.1,0,0.1,0,0.2,0l0.4-0.1
		l-0.3,1c0,0.2,0,0.4,0.2,0.5C7,29,7.1,29,7.3,28.9l0.5-0.3c0.2,1.1,0.6,2.1,1.4,2.9c0.2,0.2,0.5,0.2,0.7,0c0.1-0.1,0.1-0.1,0.1-0.2
		l0.1-0.5l1.2,2.4c0.1,0.2,0.4,0.3,0.7,0.2c0.2-0.1,0.3-0.2,0.3-0.4l0-0.2l1.8,1.8c0.1,0.1,0.1,0.1,0.2,0.1l5.8,1.5c0,0,0.1,0,0.1,0
		c0.3,0,0.5-0.2,0.5-0.5c0-0.1,0-0.2-0.1-0.2l-0.2-0.4l1.4,0.5c0.3,0.1,0.5,0,0.6-0.3c0-0.1,0-0.3,0-0.4c0.5,0.1,1,0.3,1.6,0.6
		c0.2,0.1,0.4,0.1,0.5-0.1c0.2-0.1,0.2-0.3,0.2-0.5l-0.2-0.9l3,1.4c0.2,0.1,0.4,0,0.6-0.1c0.1-0.2,0.2-0.4,0.1-0.6l-0.4-0.9l0.4,0
		c0.1,0,0.1,0.1,0.2,0.1c0.1,0,0.2,0,0.3,0c1,0,1.9-0.5,2.4-1.4c0.1-0.1,0.1-0.2,0.2-0.3l3.6-2.1c0.2-0.1,0.3-0.4,0.2-0.7
		c0-0.1-0.1-0.1-0.1-0.2l-0.5-0.4c0.7-0.5,1.5-1,2.3-1.4c0.1-0.1,0.2-0.2,0.3-0.3c0-0.1,0-0.3-0.1-0.4c-0.4-0.5-1-0.9-1.6-1
		c0.9-1.4,1.7-2.8,2.5-4.2C38,21.4,37.9,21.2,37.7,21z M28.8,20c-0.2,0.1-0.3,0.3-0.3,0.5l0.1,1.8c-0.3,0.3-0.5,0.6-0.7,0.9
		c-0.3,0.4-0.4,0.8-0.5,1.2c-0.1,0.5-0.1,1.1,0,1.6c-0.2,0-0.3,0-0.4,0.2c-0.3,0.4-0.7,0.8-1.2,1.1v0c0-0.2,0-0.3-0.2-0.5
		c-0.1-0.1-0.3-0.2-0.5-0.1l-2.6,0.7c0.2-0.4,0.4-0.6,0.4-0.6c0.1-0.1,0.1-0.3,0.1-0.5c-0.1-0.2-0.2-0.3-0.4-0.3
		c-0.4-0.1-0.9-0.1-1.3,0c0,0-0.1,0-0.1,0c-0.1,0-0.2,0-0.3,0.1c-0.8,0.3-1.4,0.8-1.9,1.6c0,0-0.1,0-0.1,0l0.7-1
		c0.1-0.2,0.1-0.4,0-0.5c-0.1-0.2-0.3-0.2-0.5-0.2l-2,0.2c-0.3-0.9-1-1.6-1.9-1.9l-1.2-1.6h0.2c0.3,0,0.5-0.2,0.5-0.5
		c0-0.1-0.1-0.3-0.2-0.4l-1.2-1c0,0,0.1,0,0.1-0.1c0.1-0.1,0.2-0.2,0.2-0.4v-0.3c0.2,0.2,0.4,0.2,0.6,0c0.1,0,0.3-0.1,0.3-0.2
		c0.6-0.8,0.8-1.9,0.5-2.8c0-0.5,0-1,0-1.5c0.1,0,0.2,0,0.3,0c0.1-0.1,0.2-0.2,0.3-0.3l0.2-0.9c0.1,0.1,0.2,0.2,0.3,0.2
		c0.2,0,0.4-0.1,0.5-0.2c0.2-0.4,0.5-0.7,0.9-1c0.3,0.2,0.6,0.3,0.9,0.3c0.7,0,1.5-0.2,2-0.6v0.2c0,0.3,0.2,0.5,0.5,0.5
		c0.1,0,0.1,0,0.2,0l1.2-0.5l-0.2,0.4c-0.1,0.2,0,0.4,0.1,0.6c0.1,0.1,0.4,0.2,0.6,0.1l1.8-0.8c0.1,0.1,0.2,0.2,0.4,0.3
		c0.5,0.1,1,0.3,1.4,0.7c0.2,1.1,0.9,2,2,2.5c0,0,0.1,0.1,0.1,0.1l-0.3,0.3c-0.2,0.2-0.2,0.5,0,0.7c0,0,0.1,0.1,0.2,0.1
		c0.2,0.1,0.4,0.2,0.6,0.3c-0.1,0-0.1,0.1-0.2,0.1c-0.1,0.1-0.2,0.3-0.1,0.5l0.3,1.1C29.1,19.9,28.9,20,28.8,20z"/>
</g>
<g id="Layer_2_copy_2">
	<path class="st2" d="M9.9,16.1c-0.9,0-1.6,0.7-1.6,1.6c0,0.9,0.7,1.6,1.6,1.6s1.6-0.7,1.6-1.6l0,0C11.5,16.8,10.8,16.1,9.9,16.1z
		 M9.9,18.3c-0.3,0-0.6-0.3-0.6-0.6s0.3-0.6,0.6-0.6s0.6,0.3,0.6,0.6l0,0C10.5,18.1,10.2,18.3,9.9,18.3z"/>
	<path class="st2" d="M25.8,7.7c-0.9,0-1.6,0.7-1.6,1.6c0,0.9,0.7,1.6,1.6,1.6c0.9,0,1.6-0.7,1.6-1.6l0,0
		C27.4,8.4,26.7,7.7,25.8,7.7z M25.8,9.9c-0.3,0-0.6-0.3-0.6-0.6s0.3-0.6,0.6-0.6s0.6,0.3,0.6,0.6l0,0C26.4,9.6,26.1,9.9,25.8,9.9
		L25.8,9.9z"/>
	<path class="st2" d="M27,28.3c-0.9,0-1.6,0.7-1.6,1.6c0,0.9,0.7,1.6,1.6,1.6c0.9,0,1.6-0.7,1.6-1.6C28.6,29,27.9,28.3,27,28.3z
		 M27,30.6c-0.3,0-0.6-0.3-0.6-0.6s0.3-0.6,0.6-0.6s0.6,0.3,0.6,0.6l0,0C27.6,30.3,27.3,30.6,27,30.6L27,30.6z"/>
	<path class="st2" d="M37.7,21c-0.2-0.1-0.4-0.2-0.6-0.1l-0.7,0.4l0.4-1.4c0-0.1,0.1-0.3,0.1-0.4c0.2-0.7,0.1-1.5-0.2-2.1
		c0,0,0-0.1,0-0.1l0,0c-0.2-0.4-0.4-0.8-0.7-1.2c0-0.9,0.6-1.8,0.9-2.2c0.3-0.3,0.5-0.6,0.3-1c-0.1-0.2-0.4-0.3-0.6-0.3
		c-0.5,0.1-1,0.2-1.5,0.5c-0.2-0.9-0.6-1.7-1.1-2.5l-0.1-0.8l1.3-1.2c0.2-0.2,0.2-0.5,0-0.7c-0.1-0.1-0.2-0.1-0.3-0.1l-1.7-0.3
		L32.4,6c-0.1-0.2-0.4-0.4-0.7-0.2c-0.1,0-0.2,0.1-0.3,0.2l-0.8,1.6l-0.5,0.1l-1.4-2c-0.2-0.2-0.5-0.3-0.7-0.1
		c-0.1,0.1-0.2,0.3-0.2,0.4v0.5l-0.6-0.8l-0.3-0.4l-0.6-0.8c-0.1-0.1-0.3-0.2-0.4-0.2c-0.2,0-0.3,0.1-0.4,0.2h0c-0.3,0-0.7-0.1-1,0
		l-5.7-0.9c-0.3,0-0.5,0.1-0.6,0.4c0,0.2,0,0.3,0.1,0.4l0.2,0.2h-1.9c-0.2,0-0.4,0.2-0.5,0.4c0,0.3,0,0.7,0.2,0.9
		c-0.7-0.3-1.4-0.6-2-1c-0.2-0.1-0.5-0.1-0.7,0c-0.1,0.1-0.2,0.3-0.3,0.5l-0.1-0.2c-0.1-0.2-0.3-0.3-0.4-0.3c-0.2,0-0.4,0.1-0.4,0.3
		l-0.8,1.6L10.1,7C9.9,7,9.7,7.3,9.7,7.6c0,0.1,0.1,0.2,0.1,0.3l0.5,0.5c-0.2,0.1-0.3,0.1-0.3,0.2C9.8,8.7,9.7,9,9.8,9.2
		c0,0,0,0,0,0.1C9.8,9.4,9.7,9.6,9.6,9.7l-2.4,1.2C7,10.9,6.9,11,6.9,11.2c0,0.2,0.1,0.4,0.2,0.5l0.1,0.1l-0.6,0.3
		c-0.2,0.1-0.3,0.2-0.3,0.4c0,0.5,0,0.9,0.2,1.4c0,0,0,0,0,0c-0.2-0.1-0.3-0.1-0.5,0c-0.1,0.1-0.2,0.3-0.2,0.4l0,2.3
		c-0.1-0.1-0.3-0.1-0.5,0c-0.2,0.1-0.3,0.3-0.3,0.5l0.5,4.5l-0.8,0.1c-0.2,0-0.3,0.2-0.4,0.3c-0.1,0.2,0,0.4,0.1,0.5l1.2,1.1
		c0,0.1,0,0.2,0,0.4l-0.2,1.4c0,0.2,0,0.4,0.2,0.5C5.7,26,5.8,26,5.9,26l-0.1,0.8c0,0.3,0.2,0.5,0.4,0.6c0.1,0,0.1,0,0.2,0l0.4-0.1
		l-0.3,1c0,0.2,0,0.4,0.2,0.5c0.2,0.1,0.4,0.1,0.5,0l0.5-0.3c0.2,1.1,0.6,2.1,1.4,2.9c0.2,0.2,0.5,0.2,0.7,0
		c0.1-0.1,0.1-0.1,0.1-0.2l0.1-0.5l1.2,2.4c0.1,0.2,0.4,0.3,0.7,0.2c0.2-0.1,0.3-0.2,0.3-0.4l0-0.2l1.8,1.8c0.1,0.1,0.1,0.1,0.2,0.1
		l5.8,1.5c0,0,0.1,0,0.1,0c0.3,0,0.5-0.2,0.5-0.5c0-0.1,0-0.2-0.1-0.2l-0.2-0.4l1.4,0.5c0.3,0.1,0.5,0,0.6-0.3c0-0.1,0-0.3,0-0.4
		c0.5,0.1,1,0.3,1.6,0.6c0.2,0.1,0.4,0.1,0.5-0.1c0.2-0.1,0.2-0.3,0.2-0.5l-0.2-0.9l3,1.4c0.2,0.1,0.4,0,0.6-0.1
		c0.1-0.2,0.2-0.4,0.1-0.6l-0.4-0.8l0.4,0c0.1,0,0.1,0.1,0.2,0.1c0.1,0,0.2,0,0.3,0c1,0,1.9-0.5,2.4-1.4c0.1-0.1,0.1-0.2,0.2-0.3
		l0,0l0,0l3.6-2.1c0.2-0.1,0.3-0.4,0.2-0.7c0-0.1-0.1-0.1-0.1-0.2l-0.5-0.4c0.7-0.5,1.5-1,2.3-1.4c0.1-0.1,0.2-0.2,0.3-0.3
		s0-0.3-0.1-0.4c-0.4-0.5-1-0.9-1.6-1c0.9-1.4,1.7-2.8,2.5-4.2C38,21.4,37.9,21.2,37.7,21z M35.8,17.9c0.1,0.3,0.2,0.6,0.2,0.8
		c0,0,0-0.1-0.1-0.1c-0.5-0.7-1.3-1.5-2.8-2c-0.7-0.3-1.5-0.4-2.2-0.5c-0.6,0-1.2-0.2-1.8-0.4c-0.6-0.2-1.1-0.7-1.4-1.3
		c0.1,0,0.2,0.1,0.3,0.1c1.3,0.4,2.6,0.7,4,0.7c1.4,0.1,3,1.2,3.7,2.5C35.8,17.8,35.8,17.9,35.8,17.9z M33.5,22.9l0.2,0.9l-0.8-0.4
		c-0.1,0-0.2-0.1-0.2-0.1c-0.1,0-0.2,0-0.2,0.1l-0.8,0.4l0.2-0.9c0-0.2,0-0.3-0.1-0.4l-0.7-0.7l0.9-0.1c0.2,0,0.3-0.1,0.4-0.3
		l0.4-0.9l0.4,0.9c0.1,0.1,0.2,0.2,0.4,0.3l0.9,0.1l-0.7,0.7C33.5,22.6,33.5,22.7,33.5,22.9L33.5,22.9z M33.8,20.7l-0.7-1.6
		c-0.1-0.2-0.3-0.3-0.4-0.3c-0.2,0-0.4,0.1-0.4,0.3l-0.8,1.6l-0.9,0.1l-0.4-1.3l0.3,0.1c0.2,0.1,0.3,0,0.5-0.1
		c0.1-0.1,0.2-0.3,0.2-0.4c-0.1-0.8-0.9-1.5-1.5-1.9l0.3-0.2l0,0c0.3,0.1,0.6,0.1,0.9,0.1c0.7,0,1.4,0.2,2,0.4
		c2.6,1,2.8,2.5,2.8,2.6c0,0.1,0,0.2,0.1,0.3l-0.1,0.5h0L33.8,20.7z M30.6,23l-0.3,1.6c-0.2-0.7-0.4-1.5-0.6-2.2
		c0-0.1-0.1-0.2-0.1-0.2V22L30.6,23z M28.6,22.3c-0.3,0.3-0.5,0.6-0.7,0.9l0,0c-0.3,0.4-0.4,0.8-0.5,1.2c-0.1,0.5-0.1,1.1,0,1.6l0,0
		c-0.2,0-0.3,0-0.4,0.2c-0.3,0.4-0.7,0.8-1.2,1.2v0c0-0.2,0-0.3-0.2-0.5c-0.1-0.1-0.3-0.2-0.5-0.1l-2.6,0.7c0.2-0.4,0.4-0.6,0.4-0.6
		c0.1-0.1,0.1-0.3,0.1-0.5c-0.1-0.2-0.2-0.3-0.4-0.3c-0.4-0.1-0.9-0.1-1.3,0c0,0-0.1,0-0.1,0c-0.1,0-0.2,0-0.3,0.1
		c-0.8,0.3-1.5,0.8-1.9,1.6c0,0-0.1,0-0.1,0l0.7-1c0.1-0.2,0.1-0.4,0-0.5c-0.1-0.2-0.3-0.2-0.5-0.2l-2,0.2c-0.3-0.9-1-1.6-1.9-1.9
		l-1.2-1.6h0.2c0.3,0,0.5-0.2,0.5-0.5c0-0.1-0.1-0.3-0.2-0.4l-1.2-1c0,0,0.1,0,0.1-0.1c0.1-0.1,0.2-0.2,0.2-0.4v-0.3
		c0.2,0.2,0.4,0.2,0.6,0l0,0c0.1,0,0.3-0.1,0.3-0.2c0.6-0.8,0.8-1.9,0.5-2.8c0-0.5,0-1,0-1.5c0.1,0,0.2,0,0.3,0
		c0.1-0.1,0.2-0.2,0.3-0.3l0.2-0.9c0.1,0.1,0.2,0.2,0.3,0.2c0.2,0,0.4-0.1,0.5-0.2c0.2-0.4,0.5-0.7,0.9-1c0.3,0.2,0.6,0.3,0.9,0.3
		c0.7,0,1.5-0.2,2-0.6v0.2c0,0.3,0.2,0.5,0.5,0.5c0.1,0,0.1,0,0.2,0l1.2-0.5l-0.2,0.4c-0.1,0.2,0,0.4,0.1,0.6
		c0.1,0.1,0.4,0.2,0.6,0.1l1.8-0.8c0.1,0.1,0.2,0.2,0.4,0.3c0.5,0.1,1,0.3,1.4,0.7c0.2,1.1,0.9,2,2,2.5c0,0,0.1,0.1,0.1,0.1
		l-0.3,0.3c-0.2,0.2-0.2,0.5,0,0.7c0,0,0.1,0.1,0.2,0.1c0.2,0.1,0.4,0.2,0.6,0.3c-0.1,0-0.1,0.1-0.2,0.1c-0.1,0.1-0.2,0.3-0.1,0.5
		l0.3,1.2c-0.1-0.1-0.3,0-0.4,0c-0.2,0.1-0.3,0.3-0.3,0.5L28.6,22.3z M22.2,30.2l0.2,0.9l-0.8-0.4c-0.1,0-0.1-0.1-0.2-0.1
		c-0.1,0-0.2,0-0.2,0.1l0,0l-0.8,0.4l0.2-0.9c0-0.1,0-0.3-0.1-0.4c0,0,0-0.1-0.1-0.1L19.6,29l0,0l0,0c0,0,0,0,0-0.1
		c0.1,0,0.1,0,0.2,0l0.7-0.1c0.1,0,0.2-0.1,0.3-0.1c0.1-0.2,0.2-0.4,0.3-0.5c0-0.1,0.1-0.2,0.1-0.2l0.1-0.2l0,0l0.2,0.4l0.2,0.4
		c0,0.1,0.1,0.1,0.2,0.2c0.1,0,0.1,0.1,0.2,0.1l0.5,0.1l0.4,0.1l-0.7,0.7C22.3,29.9,22.2,30,22.2,30.2z M17.9,11.1
		c-0.3,0-0.6-0.3-0.6-0.6c0-0.3,0.3-0.6,0.6-0.6c0.3,0,0.6,0.3,0.6,0.6S18.2,11.1,17.9,11.1L17.9,11.1z M32,13
		c0-0.3,0.3-0.6,0.6-0.6c0.3,0,0.6,0.3,0.6,0.6c0,0.3-0.3,0.6-0.6,0.6l0,0C32.3,13.7,32,13.4,32,13L32,13z M34.2,13.5
		c0,0.2,0.1,0.3,0.1,0.5c0,0.3,0.3,0.5,0.6,0.4c0.1,0,0.1,0,0.2-0.1c0.1-0.1,0.3-0.2,0.6-0.3c-0.3,0.4-0.5,0.9-0.6,1.4
		c-0.5-0.4-1.2-0.7-1.8-0.9C33.7,14.4,34.1,13.9,34.2,13.5z M30.8,8.5l0.3,0c0,0,0.1,0,0.1,0l0,0c0.1,0,0.2-0.1,0.3-0.2l0-0.1
		L32,7.3l0.4,0.9c0.1,0.1,0.2,0.3,0.4,0.3l0.9,0.1L33,9.3l0,0c-0.1,0.1-0.2,0.3-0.1,0.4l0.2,0.9l-0.3-0.2l-0.5-0.3
		c-0.1,0-0.2-0.1-0.2-0.1h0c-0.1,0-0.2,0-0.2,0.1L31,10.6l-0.2,0.1l0.1-0.3L31,9.7c0-0.2,0-0.3-0.1-0.4l-0.7-0.7L30.8,8.5z
		 M29.1,7.7L29.1,7.7H29V7.5L29.1,7.7z M26.5,6.2l1.5,2c0.1,0.2,0.3,0.2,0.5,0.2c0,0.1,0.1,0.2,0.1,0.2L30,9.8l-0.3,1.7
		c0,0.2,0,0.4,0.2,0.5c0.2,0.1,0.4,0.1,0.5,0l1.5-0.8l0.4,0.2C31.6,11.6,31,12.3,31,13c0,0.5,0.2,0.9,0.6,1.2
		c-1.5-0.2-2.9-0.5-4.3-1c-0.1,0-0.2,0-0.2,0c-0.2-0.2-0.5-0.3-0.7-0.4l0.4-0.4c0.2-0.2,0.2-0.4,0.1-0.6s-0.4-0.3-0.6-0.2l-2.2,1
		l0.2-0.3c0.1-0.2,0-0.4-0.1-0.5s-0.4-0.2-0.6-0.1l-1.7,0.8V12c0,0,0-0.1,0-0.1c0.4-0.6,0.8-1.3,1-2C22.9,9.6,23,9.3,23.1,9
		C24.5,6.5,26,6.3,26.5,6.2L26.5,6.2z M24.5,5.5c0.2,0,0.3,0,0.5,0c0.1,0,0.3,0,0.4,0c-0.1,0-0.2,0.1-0.3,0.1
		c-0.9,0.4-2,1.2-2.9,2.9c-0.2,0.3-0.4,0.7-0.5,1.1c-0.3,0.8-1,2.6-2.5,2.8c0.8-1.2,1.5-2.6,1.9-4C21.5,7.1,23.1,5.7,24.5,5.5
		L24.5,5.5z M17.5,7.1c0.3,0,0.5-0.3,0.4-0.5c0-0.1,0-0.2-0.1-0.2c-0.2-0.2-0.3-0.5-0.5-0.7l2.4,0c0.2,0,0.4-0.1,0.5-0.3
		c0.1-0.2,0-0.3-0.1-0.5l2.4,0.4c-1.2,0.7-2,1.7-2.5,2.9c-0.2,0.6-0.4,1.2-0.7,1.8c-0.3-0.8-1.3-1.3-2.1-1c-0.8,0.3-1.3,1.3-1,2.1
		c0.2,0.6,0.8,1,1.5,1c0.1,0,0.2,0,0.3,0c0,0-0.1,0.1-0.1,0.1c-0.1-0.1-0.2-0.1-0.3-0.1c-0.4,0.1-0.8,0.5-1.2,0.9
		c0-0.2-0.1-0.3-0.1-0.5c0-0.2-0.2-0.4-0.5-0.4c-0.2,0-0.4,0.1-0.5,0.4l-0.5,2l-0.1,0c-0.2-0.1-0.3-0.1-0.5,0
		c-0.1,0.1-0.2,0.3-0.2,0.5c0,0.1,0,0.2,0,0.3c-0.2-0.2-0.4-0.4-0.6-0.6c-0.5-0.5-0.9-1-1.3-1.6c-0.3-0.6-0.6-1.2-0.7-1.8l1.3-0.7
		l1.5,0.8c0.1,0,0.2,0.1,0.2,0.1c0.3,0,0.5-0.2,0.5-0.5c0,0,0-0.1,0-0.1L15,9.1l1.3-1.2c0.1-0.1,0.2-0.3,0.1-0.5
		C16.3,7.2,16.2,7.1,16,7l-1.4-0.2c0-0.2-0.1-0.5-0.1-0.7C15.3,6.5,16.6,7.2,17.5,7.1z M11.9,7.8l0.4,0c0.2,0,0.3-0.1,0.4-0.3
		L13,6.6l0.3,0.7l0.1,0.2c0.1,0.1,0.2,0.2,0.4,0.3l0.9,0.1h0L14.7,8c0,0,0,0,0,0c0,0-0.1,0.1-0.1,0.1l-0.4,0.4
		C14,8.6,13.9,8.8,14,8.9l0.2,0.9l-0.9-0.4c-0.1,0-0.2-0.1-0.2-0.1s-0.2,0-0.2,0.1l-0.8,0.4L12.1,9c0-0.1,0-0.1,0-0.2
		c0-0.1-0.1-0.2-0.1-0.2L11.4,8l-0.1-0.1L11.9,7.8z M10.3,10.8c0-0.1,0.1-0.3,0.1-0.4c0.1-0.2,0.1-0.3,0.2-0.4c0,0.1,0,0.2,0,0.3
		c0,1.1,0.3,2.2,0.9,3.1c0.4,0.6,0.9,1.3,1.4,1.8c0.6,0.5,1,1.2,1.3,1.9c0.2,0.4,0.2,0.9,0,1.4c-0.1-0.1-0.1-0.2-0.2-0.3
		c-0.7-1.2-1.6-2.2-2.6-3.1C10.5,14.3,9.9,12.3,10.3,10.8L10.3,10.8z M6.5,18.1c0.2-0.1,0.3-0.3,0.3-0.4l0-2.6
		c0.3,0.1,0.5,0.2,0.8,0.2c0.2,0,0.3-0.1,0.4-0.3c0.1-0.2,0.1-0.4,0-0.5c-0.3-0.5-0.5-1.1-0.7-1.7l1-0.5c0.2-0.1,0.4-0.4,0.2-0.7
		c0-0.1-0.1-0.1-0.2-0.2l-0.1-0.1L9.2,11c-0.3,1.7,0.4,3.8,1.6,4.9c0.7,0.7,1.5,1.5,2,2.3c-0.1,0.1-0.2,0.2-0.2,0.4l0,1.2l-0.5,0
		c-0.2,0-0.4,0.1-0.5,0.3c-0.1,0.2,0,0.4,0.1,0.6l1.2,1c-0.3,0-0.4,0.3-0.4,0.6c0,0.1,0,0.2,0.1,0.2l1.1,1.5c-0.5,0-1.1,0-1.6,0.2
		c-0.6,0.2-1.3,0.2-2,0.2c-0.2,0-0.3,0-0.5,0l-0.1-0.6l1.3-1.2c0.1-0.1,0.2-0.3,0.1-0.5c-0.1-0.2-0.2-0.3-0.4-0.3l-1.7-0.3l-0.7-1.6
		c-0.1-0.2-0.3-0.3-0.4-0.3l0,0c-0.2,0-0.4,0.1-0.4,0.3l-0.7,1.4l-0.4-3.2C6.3,18.1,6.4,18.1,6.5,18.1L6.5,18.1z M6.8,26.3l0-0.3
		c0.1,0.1,0.2,0.1,0.2,0.2L6.8,26.3z M7,24.4L7,24.4l-0.1,0l-0.3,0.2l0.2-0.9c0-0.2,0-0.3-0.1-0.4l-0.7-0.7l0,0l0,0l0.6-0.1h0.1
		l0.2,0c0.2,0,0.3-0.1,0.4-0.3l0.4-0.9l0.4,0.9c0.1,0.1,0.2,0.2,0.4,0.3l0.9,0.1l-0.7,0.7c-0.1,0.1-0.2,0.3-0.1,0.4l0.1,0.4l0.1,0.5
		l-0.8-0.4c-0.1,0-0.1-0.1-0.2-0.1c-0.1,0-0.2,0-0.2,0.1L7,24.4z M7.7,25.2L9.2,26c0.1,0,0.2,0.1,0.2,0.1c0.1,0,0.2,0,0.3-0.1
		c0.2-0.1,0.2-0.3,0.2-0.5v-0.1c0.1,0,0.2,0,0.2,0c0.8,0,1.5,0,2.3-0.2c0.7-0.2,1.5-0.2,2.3,0c0.5,0.1,0.9,0.4,1.2,0.8
		c-0.2,0-0.4,0-0.6,0c-1.3,0-2.5,0.1-3.8,0.4c-1.2,0.3-3-0.2-4-1.1L7.7,25.2z M14.2,33.3c-0.1,0-0.1,0-0.2,0L12.8,32
		c0.8,0.4,1.8,0.1,2.2-0.6c0.4-0.8,0.1-1.8-0.6-2.2c-0.8-0.4-1.8-0.1-2.2,0.6C12,30,12,30.3,12,30.6c0,0.3,0.1,0.6,0.2,0.8
		c-0.1-0.1-0.3-0.1-0.4,0c-0.1,0-0.2,0.1-0.2,0.1l-1.1-2.2C10.4,29.1,10.2,29,10,29s-0.4,0.2-0.4,0.4l-0.2,0.7
		c-0.4-0.7-0.6-1.5-0.6-2.3c0-0.2-0.1-0.4-0.2-0.4c-0.2-0.1-0.3-0.1-0.5,0l-0.3,0.1l0.2-0.8c0.8,0.4,1.8,0.7,2.8,0.7
		c0.4,0,0.7,0,1.1-0.1c1.4-0.3,2.8-0.5,4.3-0.4l0.1,0.2c0.1,0.1,0.3,0.2,0.5,0.2l1.6-0.2l-0.4,0.6c-0.1,0.2-0.1,0.4,0.1,0.6
		c0,0,0.1,0.1,0.1,0.1c0,0-0.1,0.1-0.1,0.1c-0.1,0.2,0,0.4,0.1,0.5l0.2,0.2c0,0,0,0,0,0.1c-0.2,0.6-0.5,1.3-0.9,1.8
		C15.8,33.5,14.3,33.3,14.2,33.3z M13,30.6c0-0.3,0.3-0.6,0.6-0.6c0.3,0,0.6,0.3,0.6,0.6c0,0.3-0.3,0.6-0.6,0.6l0,0
		C13.2,31.2,13,30.9,13,30.6L13,30.6z M15.5,34c0.8-0.3,1.8-0.9,2.8-2.3c0.4-0.5,0.6-1.1,0.9-1.7l0.2,0.2L19.1,32
		c0,0.1,0,0.3,0.1,0.4c-0.7,0.8-1.7,1.5-2.7,1.7C16.1,34.1,15.8,34.1,15.5,34z M28.4,33L27,33.1c-0.3,0-0.5,0.3-0.5,0.5
		c0,0.1,0,0.1,0.1,0.2l0.1,0.2l-2.6-1.2c-0.2-0.1-0.5,0-0.7,0.2c0,0.1-0.1,0.2,0,0.3l0.2,1c-0.6-0.3-1.3-0.4-2-0.4
		c-0.2,0-0.3,0.1-0.4,0.3c0,0.1-0.1,0.2-0.1,0.2l-1.5-0.5c-0.3-0.1-0.5,0-0.6,0.3c0,0.1,0,0.3,0,0.4l0.3,0.6l-1.7-0.4
		c1.2-0.5,2.3-1.5,2.9-2.6l0.8-0.4l1.5,0.8c0.1,0,0.2,0.1,0.2,0.1c0.3,0,0.5-0.2,0.5-0.5c0,0,0-0.1,0-0.1l-0.3-1.7l1.3-1.2
		c0.2-0.2,0.2-0.5,0-0.7c-0.1-0.1-0.2-0.1-0.3-0.1l-0.2,0l0.7-0.2l-0.1,0.3c0,0.2,0,0.3,0.1,0.4c0.1,0.1,0.3,0.2,0.4,0.1
		c0.6-0.1,1.5-0.9,2-1.5l0.2,0.4c0.1,0.2,0.3,0.3,0.5,0.3c0.2,0,0.3-0.1,0.4-0.3c0.2,0.5,0.4,1,0.5,1.6C29.4,31.5,28.7,32.6,28.4,33
		L28.4,33z M30.6,31.6c-0.1,0.2-0.2,0.3-0.3,0.5c-0.2,0.3-0.4,0.5-0.6,0.6c0.1-0.3,0.2-0.5,0.3-0.8c0.2-0.9,0.2-1.9,0-2.8
		c-0.2-0.7-0.4-1.5-0.8-2.1c-0.4-0.8-0.9-2.1-0.4-3.2c0.1-0.1,0.1-0.2,0.2-0.3c0,0,0,0.1,0,0.1c0.3,1.4,0.8,2.7,1.5,4
		c0.1,0.3,0.3,0.5,0.3,0.8c-0.2,0.3-0.3,0.6-0.3,0.9c0,0.4,0.1,0.7,0.4,1C30.8,30.8,30.7,31.2,30.6,31.6L30.6,31.6z M32.2,30
		c-0.1,0-0.1,0-0.2,0c-0.3-0.1-0.5-0.4-0.4-0.7c0.1-0.2,0.2-0.3,0.4-0.4c0.1,0,0.1,0,0.2,0c0.3,0,0.6,0.3,0.6,0.6
		C32.8,29.7,32.5,30,32.2,30L32.2,30z M35.7,27c-0.8,0.4-1.8,1-2.2,1.6c-0.3-0.5-0.8-0.8-1.4-0.8c-0.1,0-0.3,0-0.4,0.1
		c-0.1-0.2-0.2-0.5-0.3-0.7c-0.3-0.6-0.6-1.3-0.9-1.9c0.2,0.1,0.3,0.1,0.5,0l1.5-0.8l1.5,0.8c0.1,0,0.1,0.1,0.2,0.1s0.2,0,0.3-0.1
		c-0.2,0.3-0.4,0.5-0.6,0.8c-0.1,0.2-0.1,0.4,0,0.5c0.1,0.2,0.3,0.3,0.5,0.2C35,26.7,35.4,26.8,35.7,27L35.7,27z M34.8,24.9
		c0-0.1,0-0.1,0-0.2L34.6,23l0.6-0.6c0,0.3,0.2,0.5,0.5,0.5c0.1,0,0.2,0,0.3-0.1l0.2-0.1C35.8,23.4,35.3,24.1,34.8,24.9L34.8,24.9z"
		/>
</g>
<g id="Layer_2_copy_3">
	<path class="st3" d="M10.5,17.7c0,0.3-0.3,0.6-0.6,0.6c-0.3,0-0.6-0.3-0.6-0.6c0-0.3,0.3-0.6,0.6-0.6
		C10.2,17.1,10.5,17.4,10.5,17.7z"/>
	<path class="st3" d="M13.6,31.2c-0.3,0-0.6-0.3-0.6-0.6c0-0.3,0.3-0.6,0.6-0.6c0.3,0,0.6,0.3,0.6,0.6
		C14.2,30.9,13.9,31.2,13.6,31.2z"/>
	<path class="st3" d="M26.4,29.9c0-0.3,0.3-0.6,0.6-0.6c0.3,0,0.6,0.3,0.6,0.6c0,0.3-0.3,0.6-0.6,0.6C26.6,30.6,26.4,30.3,26.4,29.9
		z"/>
	<path class="st3" d="M32,29.9c-0.3-0.1-0.5-0.4-0.4-0.7c0.1-0.2,0.2-0.3,0.4-0.4c0.1,0,0.1,0,0.2,0c0.3,0,0.6,0.3,0.6,0.6
		c0,0.3-0.3,0.6-0.6,0.6C32.1,30,32,30,32,29.9z"/>
	<path class="st3" d="M32,13c0-0.3,0.3-0.6,0.6-0.6c0.3,0,0.6,0.3,0.6,0.6c0,0.3-0.3,0.6-0.6,0.6c0,0,0,0-0.1,0
		C32.3,13.6,32,13.3,32,13z"/>
	<path class="st3" d="M25.8,9.9c-0.3,0-0.6-0.3-0.6-0.6c0-0.3,0.3-0.6,0.6-0.6c0.3,0,0.6,0.3,0.6,0.6C26.4,9.6,26.1,9.9,25.8,9.9z"
		/>
	<path class="st3" d="M17.9,11.1c-0.3,0-0.6-0.3-0.6-0.6c0-0.3,0.3-0.6,0.6-0.6c0.3,0,0.6,0.3,0.6,0.6
		C18.5,10.8,18.3,11.1,17.9,11.1z"/>
	<path class="st1" d="M17.8,12C17.9,12,17.9,12,17.8,12C17.9,12,17.9,12,17.8,12C17.9,12,17.8,12,17.8,12z"/>
</g>
<g id="Layer_9">
	<path class="st4" d="M6.6,24.6l0.2-0.9c0-0.2,0-0.3-0.1-0.4l-0.7-0.7l0.6-0.1h0.1l0.2,0c0.2,0,0.3-0.1,0.4-0.3l0.4-0.9l0.4,0.9
		c0.1,0.1,0.2,0.2,0.4,0.3l1,0.1l-0.7,0.7c-0.1,0.1-0.2,0.3-0.1,0.4l0.1,0.4l0.1,0.5l-0.8-0.4c-0.1,0-0.1-0.1-0.2-0.1
		c-0.1,0-0.2,0-0.2,0.1L7,24.4l-0.1,0h0L6.6,24.6z"/>
	<path class="st4" d="M22.1,29l0.5,0.1l0.4,0.1l-0.7,0.7c-0.1,0.1-0.2,0.2-0.2,0.4l0.2,0.9l-0.8-0.4c-0.1,0-0.1-0.1-0.2-0.1
		c-0.1,0-0.2,0-0.2,0.1l0,0l-0.8,0.4l0.2-0.9c0-0.1,0-0.3-0.1-0.4c0,0,0-0.1-0.1-0.1L19.6,29c0,0,0,0,0-0.1c0.1,0,0.1,0,0.2,0
		l0.7-0.1c0.1,0,0.2-0.1,0.3-0.1c0.1-0.2,0.2-0.4,0.3-0.5c0-0.1,0.1-0.2,0.1-0.2l0.1-0.2l0.2,0.4l0.2,0.4c0,0.1,0.1,0.1,0.2,0.2
		C22,28.9,22,28.9,22.1,29z"/>
	<path class="st4" d="M32.2,21.4l0.4-0.9l0.4,0.9c0.1,0.1,0.2,0.2,0.4,0.3l0.9,0.1l-0.7,0.7c-0.1,0.1-0.2,0.3-0.2,0.4l0.2,0.9
		l-0.8-0.4c-0.1,0-0.2-0.1-0.2-0.1c-0.1,0-0.2,0-0.2,0.1l-0.8,0.4l0.2-0.9c0-0.2,0-0.3-0.1-0.4l-0.7-0.7l0.9-0.1
		C32,21.6,32.1,21.5,32.2,21.4z"/>
	<path class="st4" d="M31.5,8.2L31.5,8.2L32,7.3l0.4,0.9c0.1,0.1,0.2,0.3,0.4,0.3l0.9,0.1L33,9.3c-0.1,0.1-0.1,0.2-0.1,0.4
		c0,0,0,0.1,0,0.1l0.2,0.9l-0.3-0.2l-0.5-0.3c-0.1,0-0.2-0.1-0.2-0.1h0c-0.1,0-0.2,0-0.2,0.1L31,10.6l-0.2,0.1l0.1-0.3L31,9.7
		c0-0.2,0-0.3-0.1-0.4l-0.7-0.7l0.6-0.1l0.3,0c0,0,0.1,0,0.1,0C31.3,8.4,31.4,8.3,31.5,8.2z"/>
	<path class="st4" d="M13.8,7.7l0.9,0.1h0L14.7,8c0,0,0,0,0,0c0,0-0.1,0.1-0.1,0.1l-0.4,0.4c-0.1,0.1-0.2,0.3-0.1,0.4l0.2,0.9
		l-0.9-0.4c-0.1,0-0.2-0.1-0.2-0.1c-0.1,0-0.2,0-0.2,0.1l-0.9,0.4L12.1,9c0-0.1,0-0.1,0-0.2c0-0.1-0.1-0.2-0.1-0.2L11.4,8l-0.1-0.1
		l0.6-0.1l0.4,0c0.2,0,0.3-0.1,0.4-0.3L13,6.6l0.3,0.7l0.1,0.2C13.5,7.6,13.6,7.7,13.8,7.7z"/>
</g>
</svg>
