<?xml version="1.0" encoding="utf-8"?>
<!-- Generator: Adobe Illustrator 22.1.0, SVG Export Plug-In . SVG Version: 6.00 Build 0)  -->
<svg version="1.1" id="Layer_1" xmlns="http://www.w3.org/2000/svg" x="0px" y="0px"
     viewBox="0 0 14 14" style="enable-background:new 0 0 14 14;" xml:space="preserve">
<style type="text/css">
	.st0{fill:#FFFFFF;}
</style>
  <g>
	<g>
		<path class="st0" d="M7,14c-3.9,0-7-3.1-7-7c0-2.5,1.3-4.7,3.4-6l0.5,0.8C2.1,3,1,4.9,1,7c0,3.3,2.7,6,6,6s6-2.7,6-6
			c0-2.1-1.1-4.1-2.9-5.2L10.6,1C12.7,2.3,14,4.6,14,7C14,10.9,10.9,14,7,14z"/>
	</g>
    <g>
		<path class="st0"
          d="M7,7.1c-0.4,0-0.7-0.3-0.7-0.7V0.7C6.3,0.3,6.6,0,7,0s0.7,0.3,0.7,0.7v5.6C7.7,6.8,7.4,7.1,7,7.1z"/>
	</g>
</g>
</svg>
