<?xml version="1.0" encoding="utf-8"?>
<!-- Generator: Adobe Illustrator 22.1.0, SVG Export Plug-In . SVG Version: 6.00 Build 0)  -->
<svg version="1.1" id="Layer_1" xmlns="http://www.w3.org/2000/svg" x="0px" y="0px"
     viewBox="0 0 14 14" style="enable-background:new 0 0 14 14;" xml:space="preserve">
<style type="text/css">
	.st0{fill:none;}
	.st1{fill:#FFFFFF;}
</style>
  <rect class="st0" width="14" height="14"/>
  <path class="st1" d="M7.6,7.2l5.2-5.2c0.2-0.2,0.2-0.5,0-0.7s-0.5-0.2-0.7,0L6.8,6.5L1.7,1.4C1.5,1.2,1.2,1.2,1,1.4S0.8,1.9,1,2.1
	l5.2,5.2L1,12.4c-0.2,0.2-0.2,0.5,0,0.7c0.1,0.1,0.2,0.1,0.4,0.1s0.3,0,0.4-0.1l5.2-5.2l5.2,5.2c0.1,0.1,0.2,0.1,0.4,0.1
	s0.3,0,0.4-0.1c0.2-0.2,0.2-0.5,0-0.7L7.6,7.2z"/>
</svg>
