<?xml version="1.0" encoding="utf-8"?>
<!-- Generator: Adobe Illustrator 22.1.0, SVG Export Plug-In . SVG Version: 6.00 Build 0)  -->
<svg version="1.1" id="Layer_1" xmlns="http://www.w3.org/2000/svg" x="0px" y="0px"
     viewBox="0 0 24 24" style="enable-background:new 0 0 24 24;" xml:space="preserve">
<style type="text/css">
	.st0{fill:none;}
	.st1{fill:#939598;}
</style>
  <rect class="st0" width="24" height="24"/>
  <path class="st1" d="M22.5,11.6L2.4,0.1C2.2,0,2.1,0,1.9,0.1C1.8,0.1,1.7,0.3,1.7,0.4v23.2c0,0.1,0.1,0.3,0.2,0.4
	C2,24,2.1,24,2.1,24c0.1,0,0.2,0,0.2-0.1l20.1-11.6c0.1-0.1,0.2-0.2,0.2-0.4C22.7,11.9,22.6,11.7,22.5,11.6z M2.6,22.9V1.1L21.4,12
	L2.6,22.9z"/>
</svg>
