<?xml version="1.0" encoding="utf-8"?>
<!-- Generator: Adobe Illustrator 23.0.2, SVG Export Plug-In . SVG Version: 6.00 Build 0)  -->
<svg version="1.1" xmlns="http://www.w3.org/2000/svg" xmlns:xlink="http://www.w3.org/1999/xlink" x="0px" y="0px"
	 viewBox="0 0 24 24" style="enable-background:new 0 0 24 24;" xml:space="preserve">
<style type="text/css">
	.st0{fill:#939598;}
</style>
<g id="Layer_4">
</g>
<g id="Layer_3">
	<path class="st0" d="M24,0H0v24h24V0z M1,1h22v12.2l-3.9-3.7l-7.1,6.8l-3.8-3.7L1,19.3V1z M1,23v-2.4L8.3,14l3.8,3.7l7.1-6.8
		l3.9,3.7V23H1z"/>
	<path class="st0" d="M10.6,6.5c0-2-1.6-3.6-3.6-3.6S3.4,4.6,3.4,6.5S5,10.1,7,10.1S10.6,8.5,10.6,6.5z M7,9.1
		C5.5,9.1,4.4,8,4.4,6.5c0-1.4,1.2-2.6,2.6-2.6s2.6,1.2,2.6,2.6C9.6,8,8.4,9.1,7,9.1z"/>
</g>
</svg>
