<?xml version="1.0" encoding="utf-8"?>
<!-- Generator: Adobe Illustrator 22.1.0, SVG Export Plug-In . SVG Version: 6.00 Build 0)  -->
<svg version="1.1" id="Layer_1" xmlns="http://www.w3.org/2000/svg" x="0px" y="0px"
     viewBox="0 0 22 22" style="enable-background:new 0 0 22 22;" xml:space="preserve">
<style type="text/css">
	.st0{fill:#939598;}
</style>
  <g>
	<path class="st0" d="M21.5,22h-21C0.2,22,0,21.8,0,21.5v-21C0,0.2,0.2,0,0.5,0h21C21.8,0,22,0.2,22,0.5v21C22,21.8,21.8,22,21.5,22
		z M1,21H21V1H1V21z"/>
</g>
  <g>
	<path class="st0" d="M9.7,18.3c-0.1,0-0.2,0-0.3-0.1l-5.5-4.4c-0.2-0.2-0.3-0.5-0.1-0.7c0.2-0.2,0.5-0.3,0.7-0.1l5.1,4l8.2-11.2
		c0.2-0.2,0.5-0.3,0.7-0.1c0.2,0.2,0.3,0.5,0.1,0.7l-8.5,11.7C10,18.2,9.9,18.3,9.7,18.3C9.8,18.3,9.7,18.3,9.7,18.3z"/>
</g>
</svg>
