<?xml version="1.0" encoding="utf-8"?>
<!-- Generator: Adobe Illustrator 23.0.2, SVG Export Plug-In . SVG Version: 6.00 Build 0)  -->
<svg version="1.1" xmlns="http://www.w3.org/2000/svg" xmlns:xlink="http://www.w3.org/1999/xlink" x="0px" y="0px"
	 viewBox="0 0 24 24" style="enable-background:new 0 0 24 24;" xml:space="preserve">
<style type="text/css">
	.st0{display:none;}
	.st1{display:inline;fill-rule:evenodd;clip-rule:evenodd;fill:#939598;}
	.st2{fill:#939598;}
	.st3{fill-rule:evenodd;clip-rule:evenodd;fill:none;stroke:#939598;stroke-miterlimit:10;}
</style>
<g id="Layer_3" class="st0">
	<path class="st1" d="M23.6,24H0.4C0.2,24,0,23.8,0,23.6V0.4C0,0.2,0.2,0,0.4,0s0.4,0.2,0.4,0.4v0.4h0.7C1.8,0.9,2,1,2,1.3
		S1.8,1.7,1.6,1.7H0.9v2.9h0.7C1.8,4.6,2,4.8,2,5S1.8,5.4,1.6,5.4H0.9v2.9h0.7C1.8,8.3,2,8.5,2,8.7S1.8,9.1,1.6,9.1H0.9V12h0.7
		C1.8,12,2,12.2,2,12.4s-0.2,0.4-0.4,0.4H0.9v2.9h0.7c0.2,0,0.4,0.2,0.4,0.4c0,0.2-0.2,0.4-0.4,0.4H0.9v2.9h0.7
		c0.2,0,0.4,0.2,0.4,0.4s-0.2,0.4-0.4,0.4H0.9v2.9h22.7c0.2,0,0.4,0.2,0.4,0.4S23.8,24,23.6,24z"/>
</g>
<g id="Layer_2">
	<polygon class="st2" points="1,23 1,0 0,0 0,24 24,24 24,23 	"/>
	<circle class="st3" cx="10.3" cy="11.8" r="1.7"/>
	<circle class="st3" cx="21.1" cy="6.9" r="1.7"/>
	<circle class="st3" cx="17.7" cy="17.3" r="1.7"/>
	<circle class="st3" cx="7.2" cy="3.1" r="1.7"/>
</g>
</svg>
