<?xml version="1.0" encoding="utf-8"?>
<!-- Generator: Adobe Illustrator 22.1.0, SVG Export Plug-In . SVG Version: 6.00 Build 0)  -->
<svg version="1.1" id="Layer_1" xmlns="http://www.w3.org/2000/svg" x="0px" y="0px"
     viewBox="0 0 24 24" style="enable-background:new 0 0 24 24;" xml:space="preserve">
<style type="text/css">
	.st0{fill:#939598;}
</style>
  <path class="st0" d="M2.4,24c-0.2,0-0.3-0.1-0.3-0.2c-0.1-0.1,0-0.3,0.1-0.4l21.2-22c0.1-0.1,0.3-0.1,0.4-0.1
	C23.9,1.3,24,1.5,24,1.6v21.9c0,0.2-0.2,0.5-0.4,0.5H2.4C2.4,24,2.4,24,2.4,24z M23.2,2.6L3.3,23.2l19.9-0.1V2.6z M9.6,20.9
	c-0.1,0-0.2-0.1-0.3-0.2c0-0.1,0-0.3,0.1-0.3L20.7,8.7c0.1-0.1,0.2-0.1,0.3-0.1c0.1,0,0.2,0.2,0.2,0.3v11.7c0,0.2-0.1,0.3-0.3,0.3
	L9.6,20.9C9.6,20.9,9.6,20.9,9.6,20.9z M20.6,9.6L10.3,20.3l10.3,0V9.6z M5.8,13.7l-2,2v-14l2,2C5.9,3.9,6,4,6.2,4
	c0.1,0,0.3-0.1,0.3-0.2c0.2-0.2,0.2-0.5,0-0.7c0,0-2.8-2.9-2.8-2.9C3.6,0,3.5,0,3.4,0c0,0,0,0,0,0c0,0,0,0,0,0C3.2,0,3.1,0,3,0.2
	c0,0-2.8,2.9-2.8,2.9C0,3.3,0,3.6,0.2,3.8C0.3,3.9,0.4,4,0.5,4c0.1,0,0.3-0.1,0.3-0.2l2-2.1v14l-2-2.1c-0.2-0.2-0.5-0.2-0.7,0
	s-0.2,0.5,0,0.7c0,0,2.8,2.9,2.8,2.9c0.1,0.1,0.2,0.2,0.3,0.2c0,0,0,0,0,0c0,0,0,0,0,0c0.1,0,0.3-0.1,0.3-0.2c0,0,2.8-2.9,2.8-2.9
	c0.2-0.2,0.2-0.5,0-0.7S6,13.5,5.8,13.7z"/>
</svg>
