<?xml version="1.0" encoding="utf-8"?>
<!-- Generator: Adobe Illustrator 22.1.0, SVG Export Plug-In . SVG Version: 6.00 Build 0)  -->
<svg version="1.1" id="Layer_1" xmlns="http://www.w3.org/2000/svg" x="0px" y="0px"
     viewBox="0 0 24 24" style="enable-background:new 0 0 24 24;" xml:space="preserve">
<style type="text/css">
	.st0{fill:#7AC943;}
</style>
  <g>
	<path class="st0" d="M23.8,1.3c-0.1-0.1-0.3,0-0.4,0.1l-21.2,22C2,23.4,2,23.6,2.1,23.8C2.1,23.9,2.3,24,2.4,24c0,0,0,0,0,0h21.2
		c0.2,0,0.4-0.3,0.4-0.5V1.6C24,1.5,23.9,1.3,23.8,1.3z M10.3,20.3L20.6,9.6v10.6L10.3,20.3z"/>
    <path class="st0" d="M2.9,17.4c0.1,0.1,0.2,0.2,0.3,0.2c0,0,0,0,0,0c0,0,0,0,0,0c0.1,0,0.3-0.1,0.3-0.2c0,0,2.8-2.9,2.8-2.9
		c0.2-0.2,0.2-0.5,0-0.7c-0.2-0.2-0.5-0.2-0.7,0l-2,2v-14l2,2C5.9,3.9,6,4,6.2,4c0.1,0,0.3-0.1,0.3-0.2c0.2-0.2,0.2-0.5,0-0.7
		c0,0-2.8-2.9-2.8-2.9C3.6,0,3.5,0,3.4,0c0,0,0,0,0,0c0,0,0,0,0,0C3.2,0,3.1,0,3,0.2c0,0-2.8,2.9-2.8,2.9C0,3.3,0,3.6,0.2,3.8
		C0.3,3.9,0.4,4,0.5,4c0.1,0,0.3-0.1,0.3-0.2l2-2.1v14l-2-2.1c-0.2-0.2-0.5-0.2-0.7,0s-0.2,0.5,0,0.7C0.1,14.5,2.9,17.4,2.9,17.4z"
    />
</g>
</svg>
