<?xml version="1.0" encoding="utf-8"?>
<!-- Generator: Adobe Illustrator 22.1.0, SVG Export Plug-In . SVG Version: 6.00 Build 0)  -->
<svg version="1.1" id="Layer_1" xmlns="http://www.w3.org/2000/svg" x="0px" y="0px"
     viewBox="0 0 24 24" style="enable-background:new 0 0 24 24;" xml:space="preserve">
<style type="text/css">
	.st0{fill:none;}
	.st1{fill:#7AC943;}
</style>
  <rect y="0" class="st0" width="24" height="24"/>
  <path class="st1" d="M18.1,12.1h-0.6V11c0-0.5-0.4-0.9-0.8-0.9L18,6.4c0.4,0,0.7-0.2,1-0.4c0.8-0.7,1.1-1.9,0.8-3.2
	c-0.3-1.4-1.3-2.4-2.7-2.7c-0.1,0-0.3,0-0.4,0.1c-0.1,0.1-0.1,0.3,0,0.4c0.6,0.9,0.2,1.5-0.4,2.2c-0.2,0.3-0.4,0.5-0.5,0.8
	c-0.4,0.8-0.2,1.7,0.5,2.2l-2.4,4.3h-0.4V0.9C13.4,0.4,13,0,12.5,0h-3C9,0,8.6,0.4,8.6,0.9v9.2H8.2L5.7,5.8c0,0,0,0,0,0c0,0,0,0,0,0
	c0,0-0.1-0.1-0.1-0.1c0,0,0,0,0,0L3.1,4.1C3,4,2.8,4,2.7,4.1C2.6,4.2,2.5,4.3,2.5,4.5l0.5,3c0,0,0,0,0,0c0,0,0,0,0,0c0,0,0,0,0,0.1
	l1.3,2.5c-0.4,0-0.8,0.4-0.8,0.9v10.6c0,1.3,1.1,2.4,2.4,2.4H15c1.3,0,2.4-1.1,2.4-2.4v-2.7h0.6c1.9,0,3.4-1.5,3.4-3.4
	S19.9,12.1,18.1,12.1z M16.8,6.2C16.8,6.2,16.8,6.2,16.8,6.2c0.2,0.1,0.3,0.1,0.4,0.1l-1.4,3.8h-1.2L16.8,6.2z M9.3,0.9
	c0-0.1,0.1-0.1,0.1-0.1h3c0.1,0,0.1,0.1,0.1,0.1V2H11c-0.2,0-0.4,0.2-0.4,0.4s0.2,0.4,0.4,0.4h1.7V4H12c-0.2,0-0.4,0.2-0.4,0.4
	c0,0.2,0.2,0.4,0.4,0.4h0.6v1.3H11c-0.2,0-0.4,0.2-0.4,0.4c0,0.2,0.2,0.4,0.4,0.4h1.7v1.3H12c-0.2,0-0.4,0.2-0.4,0.4
	c0,0.2,0.2,0.4,0.4,0.4h0.6v1.3H9.3V0.9z M5.1,10.1L3.9,7.6l1.4-1.1l2,3.6H5.1z M18.1,18.2h-0.6v-5.3h0.6c1.5,0,2.7,1.2,2.7,2.7
	C20.7,17,19.5,18.2,18.1,18.2z"/>
</svg>
