<?xml version="1.0" encoding="utf-8"?>
<!-- Generator: Adobe Illustrator 23.0.2, SVG Export Plug-In . SVG Version: 6.00 Build 0)  -->
<svg version="1.1" id="Layer_1" xmlns="http://www.w3.org/2000/svg" xmlns:xlink="http://www.w3.org/1999/xlink" x="0px" y="0px"
	 viewBox="0 0 154.2 29.5" style="enable-background:new 0 0 154.2 29.5;" xml:space="preserve">
<style type="text/css">
	.st0{fill:#BFBFBF;}
	.st1{fill:#808080;}
</style>
<g id="Default">
	<g>
		<path class="st0" d="M27.7,1.8v25.9H1.8V1.8H27.7 M28.2,1.3H1.3v26.9h26.9V1.3L28.2,1.3z"/>
	</g>
	<path class="st0" d="M29.5,29.5H0V0h29.5V29.5z M8.5,1.3c-1.3,0-2.6,0-4,0c-0.7,0-1.3,0-2,0c-0.3,0-0.7,0-1,0c0,0-0.1,0-0.1,0
		c0,0,0,0-0.1,0c0,0,0,0,0,0s0,0,0,0l0,0l0,0v0c0,0.1,0,0.2,0,0.3c0,0.2,0,0.3,0,0.5c0,1.3,0,2.7,0,4c0,0.3,0,0.6,0,0.9
		c0,0.1,0,0.1,0,0.2c0,0,0,0,0,0h0c0,0,0,0,0,0c0,0,0,0,0.1,0c0.1,0,0.1,0,0.2,0c0.3,0,0.6,0.1,0.8,0.1c0.6,0.1,1.1,0.2,1.7,0.3
		C5.5,7.9,6.8,8.3,8,8.8c0.6,0.3,1.2,0.5,1.8,0.9c0.1,0.1,0.3,0.2,0.4,0.2c0.1,0,0.1,0.1,0.2,0.1c0,0,0.1,0,0.1,0.1l0,0c0,0,0,0,0,0
		l0,0l0,0c0,0,0,0,0,0c0,0,0,0,0-0.1c-0.1-0.3-0.3-0.6-0.4-0.9C9.1,6.6,8.5,4,8.5,1.3z M28.2,18.3c0-5.3,0-10.5,0-15.8
		c0-0.3,0-0.7,0-1c0,0,0-0.1,0-0.1c0,0,0,0,0-0.1c0,0,0,0,0,0s0,0,0,0c0,0,0,0,0,0c-0.1,0-0.2,0-0.3,0c-0.2,0-0.3,0-0.5,0
		c-0.7,0-1.3,0-2,0c-1.3,0-2.6,0-3.9,0c-2.6,0-5.3,0-7.9,0c-1.1,0-2.3,0-3.4,0c-0.1,0-0.1,0-0.2,0c0,0-0.1,0-0.1,0c0,0,0,0-0.1,0
		s0,0,0,0c0,0,0,0,0,0c0,0.1,0,0.1,0,0.2c0,0.1,0,0.2,0,0.3c0,0.2,0,0.5,0,0.7c0.1,1,0.2,1.9,0.5,2.8c0.7,2.6,2,4.9,3.8,6.8
		C17.7,16.2,22.9,18.3,28.2,18.3z M1.3,11.2c0,5.3,0,10.5,0,15.8c0,0.3,0,0.7,0,1c0,0,0,0.1,0,0.1c0,0,0,0,0,0.1c0,0,0,0,0,0
		s0,0,0,0c0,0,0,0,0,0c0.1,0,0.2,0,0.3,0c0.2,0,0.3,0,0.5,0c0.7,0,1.3,0,2,0c1.3,0,2.6,0,3.9,0c2.6,0,5.3,0,7.9,0c1.1,0,2.2,0,3.4,0
		c0.1,0,0.1,0,0.2,0c0,0,0.1,0,0.1,0c0,0,0,0,0,0c0,0,0,0,0,0c0,0,0,0,0,0c0-0.1,0-0.1,0-0.2c0-0.1,0-0.2,0-0.3c0-0.2,0-0.5,0-0.7
		c-0.1-1-0.2-1.9-0.5-2.8c-0.7-2.6-2-4.9-3.8-6.9C11.8,13.4,6.6,11.2,1.3,11.2z M21,28.2c1.3,0,2.7,0,4,0c0.7,0,1.3,0,2,0
		c0.3,0,0.7,0,1,0c0,0,0.1,0,0.1,0c0,0,0,0,0.1,0c0,0,0,0,0,0s0,0,0,0l0,0l0,0v0c0-0.1,0-0.2,0-0.3c0-0.2,0-0.3,0-0.5
		c0-1.3,0-2.6,0-4c0-0.3,0-0.6,0-0.9c0-0.1,0-0.1,0-0.2c0,0,0,0,0,0h0c0,0,0,0,0,0c0,0,0,0,0,0c-0.1,0-0.1,0-0.2,0
		c-0.3,0-0.6,0-0.8-0.1c-0.6-0.1-1.1-0.2-1.7-0.3c-1.3-0.3-2.6-0.7-3.8-1.2c-0.6-0.3-1.2-0.5-1.8-0.9c-0.2-0.1-0.3-0.2-0.4-0.2
		c-0.1,0-0.1-0.1-0.2-0.1c0,0-0.1,0-0.1-0.1l0,0c0,0,0,0,0,0l0,0l0,0c0,0,0,0,0,0c0,0,0,0,0,0.1c0.1,0.3,0.3,0.6,0.4,0.9
		C20.5,22.9,21,25.5,21,28.2z"/>
	<path class="st1" d="M0,29.5V0h29.5v29.5H0z M28.2,8.5c0-1.3,0-2.7,0-4c0-0.7,0-1.3,0-2c0-0.3,0-0.7,0-1c0,0,0-0.1,0-0.1
		c0,0,0,0,0-0.1c0,0,0,0,0,0s0,0,0,0l0,0l0,0h0c-0.1,0-0.2,0-0.3,0c-0.2,0-0.3,0-0.5,0c-1.3,0-2.6,0-4,0c-0.3,0-0.6,0-0.9,0
		c-0.1,0-0.2,0-0.2,0c0,0,0,0,0,0v0c0,0,0,0,0,0c0,0,0,0,0,0.1c0,0.1,0,0.1,0,0.2c0,0.3,0,0.6-0.1,0.8c-0.1,0.6-0.2,1.1-0.3,1.7
		c-0.3,1.3-0.7,2.6-1.2,3.8c-0.3,0.6-0.5,1.2-0.9,1.8c-0.1,0.1-0.2,0.3-0.2,0.4c0,0.1-0.1,0.1-0.1,0.2c0,0,0,0.1-0.1,0.1l0,0
		c0,0,0,0,0,0l0,0l0,0c0,0,0,0,0,0c0,0,0,0,0.1,0c0.3-0.1,0.6-0.3,0.9-0.4C22.9,9.1,25.5,8.5,28.2,8.5z M11.2,28.2
		c5.2,0,10.5,0,15.8,0c0.3,0,0.7,0,1,0c0,0,0.1,0,0.1,0c0,0,0,0,0.1,0c0,0,0,0,0,0s0,0,0,0c0,0,0,0,0,0c0-0.1,0-0.2,0-0.3
		c0-0.2,0-0.3,0-0.5c0-0.7,0-1.3,0-2c0-1.3,0-2.6,0-3.9c0-2.6,0-5.3,0-7.9c0-1.1,0-2.3,0-3.4c0-0.1,0-0.1,0-0.2c0,0,0-0.1,0-0.1
		c0,0,0,0,0-0.1s0,0,0,0c0,0,0,0,0,0c-0.1,0-0.1,0-0.2,0c-0.1,0-0.2,0-0.3,0c-0.2,0-0.5,0-0.7,0c-1,0.1-1.9,0.2-2.8,0.5
		c-2.6,0.7-4.9,2-6.8,3.8C13.3,17.7,11.2,22.9,11.2,28.2z M18.3,1.3c-5.2,0-10.5,0-15.8,0c-0.3,0-0.7,0-1,0c0,0-0.1,0-0.1,0
		c0,0,0,0-0.1,0c0,0,0,0,0,0s0,0,0,0c0,0,0,0,0,0c0,0.1,0,0.2,0,0.3c0,0.2,0,0.3,0,0.5c0,0.7,0,1.3,0,2c0,1.3,0,2.6,0,3.9
		c0,2.6,0,5.3,0,7.9c0,1.1,0,2.3,0,3.4c0,0.1,0,0.1,0,0.2c0,0,0,0.1,0,0.1c0,0,0,0,0,0c0,0,0,0,0,0s0,0,0,0c0.1,0,0.1,0,0.2,0
		c0.1,0,0.2,0,0.3,0c0.2,0,0.4,0,0.7,0c1-0.1,1.9-0.2,2.8-0.5c2.6-0.7,4.9-2,6.9-3.8C16.2,11.8,18.3,6.6,18.3,1.3z M1.3,21
		c0,1.3,0,2.6,0,4c0,0.7,0,1.3,0,2c0,0.3,0,0.7,0,1c0,0,0,0.1,0,0.1c0,0,0,0,0,0.1c0,0,0,0,0,0s0,0,0,0l0,0l0,0h0c0.1,0,0.2,0,0.3,0
		c0.2,0,0.3,0,0.5,0c1.3,0,2.7,0,4,0c0.3,0,0.6,0,0.9,0c0.1,0,0.1,0,0.2,0c0,0,0,0,0,0v0c0,0,0,0,0,0c0,0,0,0,0,0c0-0.1,0-0.1,0-0.2
		c0-0.3,0.1-0.6,0.1-0.8c0.1-0.6,0.2-1.1,0.3-1.7c0.3-1.3,0.7-2.6,1.2-3.8c0.3-0.6,0.6-1.2,0.9-1.8c0.1-0.1,0.2-0.3,0.2-0.4
		c0-0.1,0.1-0.1,0.1-0.2c0,0,0-0.1,0.1-0.1l0,0c0,0,0,0,0,0l0,0l0,0c0,0,0,0,0,0c0,0,0,0-0.1,0c-0.3,0.1-0.6,0.3-0.9,0.4
		C6.6,20.5,4,21,1.3,21z"/>
	<g>
		<path class="st1" d="M57.4,14.6c0,2.8-0.8,4.9-2.3,6.3s-3.7,2.2-6.6,2.2h-4.7V6.4H49c2.7,0,4.7,0.7,6.2,2.1
			C56.6,10,57.4,12,57.4,14.6z M54.5,14.7c0-4-1.9-6-5.6-6h-2.4v12.1h1.9C52.5,20.8,54.5,18.7,54.5,14.7z"/>
		<path class="st1" d="M61,23.1V6.4h2.7v16.7H61z"/>
		<path class="st1" d="M77.7,18.5c0,1.5-0.5,2.6-1.6,3.5s-2.6,1.3-4.4,1.3S68.2,23,67,22.4v-2.6c0.8,0.4,1.6,0.6,2.4,0.8
			c0.9,0.2,1.7,0.3,2.4,0.3c1.1,0,1.9-0.2,2.4-0.6c0.5-0.4,0.8-1,0.8-1.6c0-0.6-0.2-1.1-0.7-1.6s-1.4-1-2.9-1.5
			c-1.5-0.6-2.6-1.3-3.2-2.1c-0.6-0.8-0.9-1.7-0.9-2.9c0-1.4,0.5-2.5,1.5-3.3c1-0.8,2.3-1.2,4-1.2c1.6,0,3.2,0.4,4.8,1.1l-0.9,2.2
			c-1.5-0.6-2.8-0.9-4-0.9c-0.9,0-1.6,0.2-2,0.6c-0.5,0.4-0.7,0.9-0.7,1.5c0,0.4,0.1,0.8,0.3,1.1s0.5,0.6,0.9,0.9s1.2,0.6,2.3,1.1
			c1.2,0.5,2.1,1,2.7,1.4c0.6,0.4,1,0.9,1.3,1.5C77.6,17.1,77.7,17.8,77.7,18.5z"/>
		<path class="st1" d="M88.1,8.5c-1.6,0-2.8,0.6-3.7,1.7c-0.9,1.1-1.3,2.6-1.3,4.6c0,2,0.4,3.6,1.3,4.6S86.4,21,88,21
			c0.7,0,1.4-0.1,2.1-0.2s1.3-0.3,2.1-0.5v2.3c-1.3,0.5-2.8,0.7-4.4,0.7c-2.4,0-4.3-0.7-5.6-2.2s-2-3.6-2-6.4c0-1.7,0.3-3.3,0.9-4.5
			c0.6-1.3,1.6-2.3,2.8-3c1.2-0.7,2.6-1,4.2-1c1.7,0,3.3,0.4,4.7,1.1l-1,2.3C91.2,9.2,90.6,9,90,8.8C89.4,8.6,88.7,8.5,88.1,8.5z"/>
		<path class="st1" d="M110.6,14.7c0,2.7-0.7,4.8-2,6.3c-1.4,1.5-3.3,2.3-5.8,2.3c-2.5,0-4.4-0.8-5.8-2.2s-2-3.6-2-6.4
			s0.7-4.9,2-6.3c1.4-1.5,3.3-2.2,5.8-2.2c2.5,0,4.4,0.8,5.8,2.3C109.9,9.9,110.6,12,110.6,14.7z M97.8,14.7c0,2,0.4,3.6,1.2,4.7
			c0.8,1.1,2.1,1.6,3.7,1.6s2.8-0.5,3.7-1.6s1.2-2.6,1.2-4.7c0-2-0.4-3.6-1.2-4.6c-0.8-1.1-2-1.6-3.7-1.6c-1.6,0-2.9,0.5-3.7,1.6
			C98.3,11.1,97.8,12.7,97.8,14.7z"/>
		<path class="st1" d="M123.7,6.4h2.8l-5.8,16.7h-2.9l-5.8-16.7h2.8l3.5,10.4c0.2,0.5,0.4,1.1,0.6,1.9c0.2,0.8,0.3,1.4,0.4,1.7
			c0.1-0.6,0.3-1.3,0.5-2s0.4-1.3,0.5-1.7L123.7,6.4z"/>
		<path class="st1" d="M138.1,23.1h-9.4V6.4h9.4v2.3h-6.7v4.5h6.3v2.3h-6.3v5.2h6.7V23.1z"/>
		<path class="st1" d="M144.4,16.4v6.7h-2.7V6.4h4.7c2.1,0,3.8,0.4,4.8,1.2s1.6,2,1.6,3.7c0,2.1-1.1,3.6-3.2,4.4l4.7,7.4h-3.1
			l-4-6.7H144.4z M144.4,14.1h1.9c1.3,0,2.2-0.2,2.8-0.7c0.6-0.5,0.9-1.2,0.9-2.1c0-0.9-0.3-1.6-0.9-2c-0.6-0.4-1.5-0.6-2.8-0.6
			h-1.8L144.4,14.1L144.4,14.1z"/>
	</g>
</g>
</svg>
